<svg width="146" height="54" xmlns="http://www.w3.org/2000/svg" xmlns:svg="http://www.w3.org/2000/svg">
 <g>
  <title>Layer 1</title>
  <g display="none" id="Layer_1_1_">
   <g id="svg_1" display="inline">
    <g id="svg_2">
     <path id="svg_3" d="m65.968,20.164c2.273,0 3.979,1.547 3.979,3.631c0,2.748 -1.705,4.864 -5.21,5.969l3.757,7.389l-2.937,0l-3.979,-8.084c3.917,-1.104 5.59,-2.559 5.59,-4.895c0,-1.2 -0.695,-1.895 -1.958,-1.895c-1.864,0 -4.042,1.642 -5.526,4.989l-1.39,9.884l-2.621,0l3.284,-23.305l2.653,-0.316l-1.453,10.2c1.642,-2.461 3.727,-3.567 5.811,-3.567z" fill="#666666"/>
     <path id="svg_4" d="m86.748,21.585l-1.8,11.812c-0.032,0.283 -0.063,0.535 -0.063,0.76c0,0.943 0.411,1.296 1.074,1.547l-0.759,1.83c-1.61,-0.254 -2.62,-0.979 -2.778,-2.844c-1.264,1.705 -3,2.844 -4.99,2.844c-3.438,0 -5.271,-2.526 -5.271,-6.381c0,-4.545 2.366,-10.987 8.776,-10.987c2.021,-0.002 3.696,0.376 5.811,1.419zm-11.779,9.567c0,2.906 1.106,4.265 3.063,4.265c1.831,0 3.188,-1.358 4.515,-3.19l1.391,-9.347c-0.945,-0.442 -1.707,-0.6 -2.938,-0.6c-4.389,0 -6.031,5.148 -6.031,8.872z" fill="#666666"/>
     <path id="svg_5" d="m112.803,25.343l-1.674,11.812l-2.62,0l1.642,-11.62c0.379,-2.558 -0.565,-3.126 -1.799,-3.126c-1.832,0 -3.506,2.242 -4.928,4.736l-1.421,10.01l-2.622,0l1.643,-11.62c0.351,-2.558 -0.565,-3.126 -1.799,-3.126c-1.865,0 -3.537,2.273 -4.928,4.8l-1.357,9.946l-2.621,0l2.336,-16.61l2.242,0l-0.283,3.411c1.518,-2.306 3.285,-3.79 5.527,-3.79c1.863,0 3.379,1.231 3.602,3.537c1.643,-2.274 3.408,-3.537 5.523,-3.537c2.496,-0.002 3.978,2.019 3.537,5.177z" fill="#666666"/>
     <path id="svg_6" d="m126.952,37.152l0.253,-3.315c-1.516,2.211 -3.252,3.695 -5.621,3.695c-2.938,0 -4.421,-1.927 -3.979,-5.181l1.674,-11.812l2.621,0l-1.646,11.716c-0.347,2.337 0.313,3.158 1.863,3.158c2.179,0 3.944,-2.085 5.271,-4.23l1.484,-10.644l2.622,0l-2.335,16.61l-2.208,0l0,0.003l0.001,0z" fill="#666666"/>
    </g>
    <g id="svg_7">
     <path id="svg_8" d="m18.326,42.191c-0.097,0.765 0.44,1.149 1.195,0.863l7.703,-2.973c0.753,-0.287 1.307,-1.148 1.307,-1.92l0,-7.621c0,-0.77 -0.562,-1.184 -1.326,-0.919l-6.263,2.161c-0.765,0.263 -1.454,1.104 -1.55,1.861l-1.066,8.548z" fill="#FE3E4D"/>
     <path id="svg_9" d="m41.944,42.191c0.097,0.765 -0.44,1.15 -1.195,0.863l-7.808,-2.972c-0.754,-0.288 -1.411,-1.149 -1.411,-1.921l0,-7.621c0,-0.77 0.667,-1.184 1.431,-0.919l6.316,2.161c0.764,0.264 1.478,1.104 1.574,1.861l1.093,8.548z" fill="#FE3E4D"/>
     <path id="svg_10" d="m12.742,13.067c-0.193,-1.525 0.882,-2.302 2.39,-1.724l10.721,4.124c1.507,0.576 2.678,2.306 2.678,3.842l0,10.537c0,1.536 -1.188,2.363 -2.716,1.838l-8.458,-2.914c-1.528,-0.523 -2.921,-2.204 -3.115,-3.729l-1.5,-11.974z" fill="#FE3E4D"/>
     <path id="svg_11" d="m31.53,29.846c0,1.536 1.292,2.363 2.821,1.84l8.509,-2.916c1.53,-0.523 2.949,-2.205 3.143,-3.729l1.52,-11.974c0.193,-1.524 -0.88,-2.302 -2.387,-1.724l-10.824,4.124c-1.506,0.576 -2.782,2.306 -2.782,3.842l0,10.537z" fill="#FE3E4D"/>
    </g>
   </g>
  </g>
  <g stroke="null" id="Layer_2">
   <g id="svg_21">
    <g stroke="null" id="svg_13">
     <path stroke="null" id="svg_14" d="m28.995979,19.894c-0.097,-3.076 -1.399,-4.352 -3.062,-5.378c-2.068,-1.278 -8.175,-3.72 -10.129,-3.964c-2.023,-0.253 -4.014,0.648 -3.969,3.604c0.056,3.612 0.351,7.791 0.905,10.756c0.266,1.426 1.128,3.541 3.219,4.346c2.492,0.959 6.447,1.359 6.447,1.359s-0.573,0.251 -1.694,0.84c-1.12,0.589 -1.938,1.305 -2.298,2.542c-0.368,1.269 -0.539,4.479 -0.431,6.263c0.107,1.75 1.158,2.428 2.499,2.213c1.339,-0.216 4.43,-1.277 5.731,-2.147c1.211,-0.812 1.933,-1.978 2.115,-3.562c0.629,-5.493 0.745,-14.458 0.667,-16.872z" fill="#FE3E4D"/>
     <path stroke="null" id="svg_15" d="m32.490979,19.894c0.097,-3.076 1.399,-4.352 3.062,-5.378c2.069,-1.278 8.175,-3.72 10.129,-3.964c2.024,-0.253 4.014,0.648 3.969,3.604c-0.056,3.612 -0.351,7.791 -0.904,10.756c-0.267,1.426 -1.129,3.541 -3.219,4.346c-2.493,0.959 -6.447,1.359 -6.447,1.359s0.573,0.251 1.694,0.84c1.119,0.589 1.938,1.305 2.298,2.542c0.367,1.269 0.539,4.479 0.431,6.263c-0.107,1.75 -1.158,2.428 -2.5,2.213c-1.338,-0.216 -4.429,-1.277 -5.731,-2.147c-1.21,-0.812 -1.933,-1.978 -2.115,-3.562c-0.628,-5.493 -0.744,-14.458 -0.667,-16.872z" fill="#FE3E4D"/>
    </g>
    <g stroke="null" id="svg_16">
     <path stroke="null" id="svg_17" d="m60.887572,28.482l7.833,-8l2.993,0l-6.984,6.956l4.393,9.368l-2.784,0l-3.5,-7.806l-2.265,1.832l-1.221,5.974l-2.531,0l4.915,-23.174l2.531,0c-0.714,3.336 -1.354,6.324 -1.921,8.965c-0.566,2.641 -1.072,4.602 -1.519,5.882l0.06,0l0,0.003z" fill="#fafafa"/>
     <path stroke="null" id="svg_18" d="m80.976572,20.188c0.912,0 1.728,0.246 2.441,0.736c0.715,0.492 1.271,1.199 1.668,2.123l0.164,0l0.998,-2.562l1.893,0l-3.471,16.322l-1.98,0l0.387,-3.111l-0.119,0c-1.775,2.272 -3.646,3.41 -5.613,3.41c-1.381,0 -2.463,-0.49 -3.248,-1.475c-0.782,-0.982 -1.174,-2.328 -1.174,-4.035c0,-2.064 0.352,-3.98 1.057,-5.75c0.706,-1.767 1.678,-3.152 2.919,-4.155c1.238,-1.003 2.6,-1.503 4.078,-1.503zm-2.83,14.847c0.963,0 1.922,-0.459 2.875,-1.378c0.953,-0.918 1.729,-2.115 2.322,-3.591c0.597,-1.475 0.895,-2.949 0.895,-4.429c0,-1.023 -0.277,-1.836 -0.834,-2.442s-1.286,-0.909 -2.189,-0.909c-1.03,0 -1.992,0.427 -2.881,1.281c-0.89,0.854 -1.586,2.011 -2.093,3.47c-0.506,1.46 -0.761,2.999 -0.761,4.617c0,1.132 0.234,1.979 0.701,2.539c0.467,0.562 1.121,0.842 1.965,0.842z" fill="#fafafa"/>
     <path stroke="null" id="svg_19" d="m99.666572,36.807l2.203,-10.305c0.18,-0.933 0.27,-1.604 0.27,-2.011c0,-0.695 -0.152,-1.236 -0.461,-1.624c-0.31,-0.387 -0.836,-0.581 -1.58,-0.581c-0.834,0 -1.646,0.298 -2.435,0.894c-0.79,0.596 -1.483,1.447 -2.085,2.553c-0.602,1.108 -1.064,2.44 -1.393,4l-1.506,7.074l-2.5,0l3.483,-16.323l2.069,0l-0.328,3.024l0.146,0c0.865,-1.182 1.728,-2.031 2.584,-2.547c0.858,-0.517 1.746,-0.774 2.66,-0.774c1.121,0 1.984,0.323 2.59,0.968c0.606,0.645 0.965,1.543 1.072,2.694l0.119,0c0.854,-1.24 1.764,-2.161 2.727,-2.762c0.961,-0.601 1.937,-0.9 2.918,-0.9c1.263,0 2.236,0.337 2.928,1.012c0.689,0.676 1.036,1.658 1.036,2.949c0,0.676 -0.109,1.559 -0.328,2.651l-2.146,10.008l-2.533,0l2.205,-10.306c0.199,-1.033 0.299,-1.758 0.299,-2.175c0,-0.615 -0.172,-1.109 -0.516,-1.481c-0.342,-0.373 -0.881,-0.559 -1.615,-0.559c-0.805,0 -1.6,0.288 -2.383,0.864c-0.785,0.575 -1.473,1.393 -2.062,2.449c-0.593,1.058 -1.04,2.311 -1.349,3.76l-1.594,7.445l-2.5,0l0,0.002l0.005,0l0,0.001z" fill="#fafafa"/>
     <path stroke="null" id="svg_20" d="m123.224572,20.485l-2.233,10.35c-0.179,0.884 -0.269,1.574 -0.269,2.069c0,1.421 0.729,2.131 2.188,2.131c0.874,0 1.732,-0.299 2.577,-0.895c0.845,-0.598 1.588,-1.449 2.231,-2.562c0.646,-1.112 1.139,-2.452 1.477,-4.021l1.489,-7.075l2.472,0l-3.439,16.323l-2.068,0l0.327,-3.021l-0.179,0c-0.975,1.238 -1.9,2.104 -2.785,2.591s-1.797,0.729 -2.74,0.729c-1.271,0 -2.27,-0.346 -2.993,-1.035c-0.726,-0.688 -1.087,-1.674 -1.087,-2.955c0,-0.615 0.109,-1.469 0.327,-2.562l2.175,-10.068l2.53,0.001l0,0z" fill="#fafafa"/>
    </g>
   </g>
  </g>
 </g>
</svg>