<?xml version="1.0" encoding="utf-8"?>
<!-- Generator: Adobe Illustrator 16.0.4, SVG Export Plug-In . SVG Version: 6.00 Build 0)  -->
<!DOCTYPE svg PUBLIC "-//W3C//DTD SVG 1.1//EN" "http://www.w3.org/Graphics/SVG/1.1/DTD/svg11.dtd">
<svg version="1.1" id="Layer_1" xmlns="http://www.w3.org/2000/svg" xmlns:xlink="http://www.w3.org/1999/xlink" x="0px" y="0px"
	 width="40px" height="120px" viewBox="0 0 40 120" enable-background="new 0 0 40 120" xml:space="preserve">
<g id="Layer_2" display="none">
</g>
<path fill="#B3B3B3" d="M28,13.071V12c0-1.104-0.896-2-2-2H12c-1.104,0-2,0.896-2,2v16c0,1.104,0.896,2,2,2h14c1.104,0,2-0.896,2-2
	v-1.071c3.418-0.461,6.059-3.383,6.059-6.929C34.059,16.455,31.418,13.532,28,13.071z M26,28H12V12h14v1.088
	C22.639,13.6,20.059,16.495,20.059,20c0,3.505,2.58,6.399,5.941,6.911V28z M30.059,21h-2v2c0,0.55-0.449,1-1,1c-0.549,0-1-0.45-1-1
	v-2h-2c-0.549,0-1-0.45-1-1s0.451-1,1-1h2v-2c0-0.55,0.451-1,1-1c0.551,0,1,0.45,1,1v2h2c0.551,0,1,0.45,1,1S30.609,21,30.059,21z"
	/>
<path fill="#777777" d="M28,53.071V52c0-1.104-0.896-2-2-2H12c-1.104,0-2,0.896-2,2v16c0,1.104,0.896,2,2,2h14c1.104,0,2-0.896,2-2
	v-1.071c3.418-0.461,6.059-3.383,6.059-6.929C34.059,56.455,31.418,53.532,28,53.071z M26,68H12V52h14v1.088
	C22.639,53.6,20.059,56.495,20.059,60c0,3.506,2.58,6.399,5.941,6.911V68z M30.059,61h-2v2c0,0.55-0.449,1-1,1c-0.549,0-1-0.45-1-1
	v-2h-2c-0.549,0-1-0.45-1-1s0.451-1,1-1h2v-2c0-0.55,0.451-1,1-1c0.551,0,1,0.45,1,1v2h2c0.551,0,1,0.45,1,1S30.609,61,30.059,61z"
	/>
<path fill="#FE3E4D" d="M28,93.07V92c0-1.104-0.896-2-2-2H12c-1.104,0-2,0.896-2,2v16c0,1.104,0.896,2,2,2h14c1.104,0,2-0.896,2-2
	v-1.071c3.418-0.461,6.059-3.383,6.059-6.929C34.059,96.455,31.418,93.531,28,93.07z M26,108H12V92h14v1.088
	c-3.361,0.512-5.941,3.407-5.941,6.912c0,3.506,2.58,6.399,5.941,6.911V108z M30.059,101h-2v2c0,0.55-0.449,1-1,1
	c-0.549,0-1-0.45-1-1v-2h-2c-0.549,0-1-0.45-1-1s0.451-1,1-1h2v-2c0-0.55,0.451-1,1-1c0.551,0,1,0.45,1,1v2h2c0.551,0,1,0.45,1,1
	S30.609,101,30.059,101z"/>
</svg>
