<?xml version="1.0" encoding="utf-8"?>
<!-- Generator: Adobe Illustrator 16.0.4, SVG Export Plug-In . SVG Version: 6.00 Build 0)  -->
<!DOCTYPE svg PUBLIC "-//W3C//DTD SVG 1.1//EN" "http://www.w3.org/Graphics/SVG/1.1/DTD/svg11.dtd">
<svg version="1.1" id="Layer_1" xmlns="http://www.w3.org/2000/svg" xmlns:xlink="http://www.w3.org/1999/xlink" x="0px" y="0px"
	 width="34px" height="68px" viewBox="0 0 34 68" enable-background="new 0 0 34 68" xml:space="preserve">
<path fill="#74CF2D" d="M17,35C8.164,35,1,42.164,1,51s7.164,16,16,16c8.836,0,16-7.164,16-16S25.836,35,17,35z M24,52h-6v6
	c0,0.55-0.45,1-1,1s-1-0.45-1-1v-6h-6c-0.55,0-1-0.45-1-1s0.45-1,1-1h6v-6c0-0.55,0.45-1,1-1s1,0.45,1,1v6h6c0.55,0,1,0.45,1,1
	S24.55,52,24,52z"/>
<g>
	<path fill="#808080" d="M17,2c8.271,0,15,6.729,15,15s-6.729,15-15,15C8.729,32,2,25.271,2,17S8.729,2,17,2 M17,1
		C8.164,1,1,8.164,1,17s7.164,16,16,16c8.836,0,16-7.164,16-16S25.836,1,17,1L17,1z"/>
</g>
<path fill="#808080" d="M24,18h-6v6c0,0.55-0.45,1-1,1s-1-0.45-1-1v-6h-6c-0.55,0-1-0.45-1-1s0.45-1,1-1h6v-6c0-0.55,0.45-1,1-1
	s1,0.45,1,1v6h6c0.55,0,1,0.45,1,1S24.55,18,24,18z"/>
</svg>
