<?xml version="1.0" encoding="utf-8"?>
<!-- Generator: Adobe Illustrator 16.0.4, SVG Export Plug-In . SVG Version: 6.00 Build 0)  -->
<!DOCTYPE svg PUBLIC "-//W3C//DTD SVG 1.1//EN" "http://www.w3.org/Graphics/SVG/1.1/DTD/svg11.dtd">
<svg version="1.1" xmlns="http://www.w3.org/2000/svg" xmlns:xlink="http://www.w3.org/1999/xlink" x="0px" y="0px" width="40px"
	 height="120px" viewBox="0 0 40 120" enable-background="new 0 0 40 120" xml:space="preserve">
<g id="Layer_1">
	<g id="Layer_1_2_" display="none">
		<g id="Layer_1_1_" display="inline">
			<g>
				<g>
					<path fill="#B3B3B3" d="M25,20c0,0.55-0.45,1-1,1h-8c-0.55,0-1-0.45-1-1l0,0c0-0.55,0.45-1,1-1h8C24.55,19,25,19.45,25,20
						L25,20z"/>
				</g>
				<g>
					<path fill="#B3B3B3" d="M20,15c0.55,0,1,0.45,1,1v8c0,0.55-0.45,1-1,1l0,0c-0.55,0-1-0.45-1-1v-8C19,15.45,19.45,15,20,15
						L20,15z"/>
				</g>
			</g>
			<g>
				<path fill="#B3B3B3" d="M28,12v16H12V12H28 M28,10H12c-1.104,0-2,0.896-2,2v16c0,1.104,0.896,2,2,2h16c1.104,0,2-0.896,2-2V12
					C30,10.896,29.104,10,28,10L28,10z"/>
			</g>
			<g>
				<g>
					<g>
						<path fill="#777777" d="M25,60c0,0.55-0.45,1-1,1h-8c-0.55,0-1-0.45-1-1l0,0c0-0.55,0.45-1,1-1h8C24.55,59,25,59.45,25,60
							L25,60z"/>
					</g>
					<g>
						<path fill="#777777" d="M20,55c0.55,0,1,0.45,1,1v8c0,0.55-0.45,1-1,1l0,0c-0.55,0-1-0.45-1-1v-8C19,55.45,19.45,55,20,55
							L20,55z"/>
					</g>
				</g>
				<g>
					<path fill="#777777" d="M28,52v16H12V52H28 M28,50H12c-1.104,0-2,0.896-2,2v16c0,1.104,0.896,2,2,2h16c1.104,0,2-0.896,2-2V52
						C30,50.896,29.104,50,28,50L28,50z"/>
				</g>
			</g>
			<g>
				<g>
					<g>
						<path fill="#FE3E4D" d="M25,100c0,0.55-0.45,1-1,1h-8c-0.55,0-1-0.45-1-1l0,0c0-0.55,0.45-1,1-1h8C24.55,99,25,99.45,25,100
							L25,100z"/>
					</g>
					<g>
						<path fill="#FE3E4D" d="M20,95c0.55,0,1,0.45,1,1v8c0,0.55-0.45,1-1,1l0,0c-0.55,0-1-0.45-1-1v-8C19,95.45,19.45,95,20,95
							L20,95z"/>
					</g>
				</g>
				<g>
					<path fill="#FE3E4D" d="M28,92v16H12V92H28 M28,90H12c-1.104,0-2,0.896-2,2v16c0,1.104,0.896,2,2,2h16c1.104,0,2-0.896,2-2V92
						C30,90.896,29.104,90,28,90L28,90z"/>
				</g>
			</g>
		</g>
		<g id="Layer_2" display="inline">
		</g>
	</g>
	<g id="Layer_3" display="none">
	</g>
	<path fill="#B3B3B3" d="M30.647,13.55c-0.297-0.507-0.653-0.986-1.083-1.416c-1.375-1.375-3.207-2.133-5.155-2.133
		c-1.599,0-3.114,0.516-4.349,1.466C18.82,10.516,17.294,10,15.678,10c-1.97,0-3.811,0.756-5.185,2.131
		c-1.36,1.359-2.125,3.167-2.156,5.092c-0.032,1.948,0.699,3.769,2.056,5.125L20.044,32l5.447-5.444
		C26.25,26.838,27.067,27,27.925,27c3.864,0,7-3.133,7-7C34.925,17.1,33.16,14.612,30.647,13.55z M20.044,29.172l-8.238-8.238
		c-0.97-0.97-1.492-2.276-1.47-3.679s0.58-2.72,1.571-3.71C12.903,12.549,14.242,12,15.678,12c1.172,0,2.266,0.365,3.166,1.054
		l1.22,0.935l1.217-0.937c0.894-0.688,1.976-1.051,3.129-1.051c1.133,0,2.202,0.367,3.1,1.02c-3.67,0.217-6.584,3.254-6.584,6.979
		c0,2.263,1.079,4.269,2.744,5.548L20.044,29.172z M30.925,21h-2v2c0,0.55-0.449,1-1,1c-0.549,0-1-0.45-1-1v-2h-2
		c-0.549,0-1-0.45-1-1s0.451-1,1-1h2v-2c0-0.55,0.451-1,1-1c0.551,0,1,0.45,1,1v2h2c0.551,0,1,0.45,1,1S31.476,21,30.925,21z"/>
	<path fill="#777777" d="M30.647,53.55c-0.297-0.507-0.653-0.986-1.083-1.416c-1.375-1.375-3.207-2.133-5.155-2.133
		c-1.599,0-3.114,0.516-4.349,1.466C18.82,50.516,17.294,50,15.678,50c-1.97,0-3.811,0.756-5.185,2.131
		c-1.36,1.359-2.125,3.167-2.156,5.092c-0.032,1.948,0.699,3.769,2.056,5.125L20.044,72l5.447-5.444
		C26.25,66.838,27.067,67,27.925,67c3.864,0,7-3.134,7-7C34.925,57.1,33.16,54.612,30.647,53.55z M20.044,69.172l-8.238-8.238
		c-0.97-0.97-1.492-2.275-1.47-3.678s0.58-2.72,1.571-3.71C12.903,52.549,14.242,52,15.678,52c1.172,0,2.266,0.365,3.166,1.054
		l1.22,0.935l1.217-0.937c0.894-0.688,1.976-1.051,3.129-1.051c1.133,0,2.202,0.367,3.1,1.02c-3.67,0.217-6.584,3.254-6.584,6.979
		c0,2.263,1.079,4.269,2.744,5.548L20.044,69.172z M30.925,61h-2v2c0,0.55-0.449,1-1,1c-0.549,0-1-0.45-1-1v-2h-2
		c-0.549,0-1-0.45-1-1s0.451-1,1-1h2v-2c0-0.55,0.451-1,1-1c0.551,0,1,0.45,1,1v2h2c0.551,0,1,0.45,1,1S31.476,61,30.925,61z"/>
	<path fill="#FE3E4D" d="M30.647,93.758c-0.297-0.507-0.653-0.985-1.083-1.415c-1.375-1.375-3.207-2.134-5.155-2.134
		c-1.599,0-3.114,0.517-4.349,1.466c-1.24-0.951-2.767-1.467-4.383-1.467c-1.97,0-3.811,0.756-5.185,2.131
		c-1.36,1.359-2.125,3.168-2.156,5.093c-0.032,1.948,0.699,3.769,2.056,5.125l9.651,9.651l5.447-5.444
		c0.759,0.282,1.576,0.444,2.434,0.444c3.864,0,7-3.134,7-7C34.925,97.308,33.16,94.82,30.647,93.758z M20.044,109.38l-8.238-8.238
		c-0.97-0.97-1.492-2.275-1.47-3.678c0.022-1.403,0.58-2.721,1.571-3.711c0.996-0.996,2.335-1.545,3.771-1.545
		c1.172,0,2.266,0.365,3.166,1.055l1.22,0.935l1.217-0.937c0.894-0.688,1.976-1.052,3.129-1.052c1.133,0,2.202,0.367,3.1,1.021
		c-3.67,0.217-6.584,3.254-6.584,6.979c0,2.263,1.079,4.269,2.744,5.548L20.044,109.38z M30.925,101.208h-2v2c0,0.55-0.449,1-1,1
		c-0.549,0-1-0.45-1-1v-2h-2c-0.549,0-1-0.45-1-1s0.451-1,1-1h2v-2c0-0.55,0.451-1,1-1c0.551,0,1,0.45,1,1v2h2c0.551,0,1,0.45,1,1
		S31.476,101.208,30.925,101.208z"/>
</g>
<g id="Layer_2_1_">
</g>
</svg>
