<?xml version="1.0" encoding="utf-8"?>
<!-- Generator: Adobe Illustrator 16.0.4, SVG Export Plug-In . SVG Version: 6.00 Build 0)  -->
<!DOCTYPE svg PUBLIC "-//W3C//DTD SVG 1.1//EN" "http://www.w3.org/Graphics/SVG/1.1/DTD/svg11.dtd">
<svg version="1.1" xmlns="http://www.w3.org/2000/svg" xmlns:xlink="http://www.w3.org/1999/xlink" x="0px" y="0px" width="52px"
	 height="104px" viewBox="0 0 52 104" enable-background="new 0 0 52 104" xml:space="preserve">
<g id="Layer_1">
	<g>
		<path fill="#CCCCCC" d="M26,6c11.028,0,20,8.972,20,20s-8.972,20-20,20C14.972,46,6,37.028,6,26S14.972,6,26,6 M26,5
			C14.402,5,5,14.402,5,26c0,11.597,9.402,21,21,21c11.598,0,21-9.403,21-21C47,14.402,37.598,5,26,5L26,5z"/>
	</g>
	<g>
		<g>
			<g>
				<path fill="#CCCCCC" d="M26,16c0.55,0,1,0.45,1,1v18c0,0.55-0.45,1-1,1l0,0c-0.55,0-1-0.45-1-1V17C25,16.45,25.45,16,26,16
					L26,16z"/>
			</g>
			<g>
				<path fill="#CCCCCC" d="M16,26c0-0.55,0.45-1,1-1h18c0.55,0,1,0.45,1,1l0,0c0,0.55-0.45,1-1,1H17C16.45,27,16,26.55,16,26L16,26
					z"/>
			</g>
		</g>
	</g>
	<g>
		<path fill="#74CF2D" d="M26,98.5C14.696,98.5,5.5,89.304,5.5,78S14.696,57.5,26,57.5S46.5,66.696,46.5,78S37.304,98.5,26,98.5z"/>
		<path fill="#6CC12A" d="M26,58c11.028,0,20,8.972,20,20s-8.972,20-20,20C14.972,98,6,89.028,6,78S14.972,58,26,58 M26,57
			C14.402,57,5,66.402,5,78s9.402,21,21,21c11.598,0,21-9.402,21-21S37.598,57,26,57L26,57z"/>
	</g>
	<g>
		<g>
			<g>
				<path fill="#F5F5F5" d="M26,68c0.55,0,1,0.45,1,1v18c0,0.55-0.45,1-1,1l0,0c-0.55,0-1-0.45-1-1V69C25,68.45,25.45,68,26,68
					L26,68z"/>
			</g>
			<g>
				<path fill="#F5F5F5" d="M16,78c0-0.55,0.45-1,1-1h18c0.55,0,1,0.45,1,1l0,0c0,0.55-0.45,1-1,1H17C16.45,79,16,78.55,16,78L16,78
					z"/>
			</g>
		</g>
	</g>
</g>
<g id="Layer_2">
</g>
</svg>
