<?xml version="1.0" encoding="utf-8"?>
<!-- Generator: Adobe Illustrator 16.0.4, SVG Export Plug-In . SVG Version: 6.00 Build 0)  -->
<!DOCTYPE svg PUBLIC "-//W3C//DTD SVG 1.1//EN" "http://www.w3.org/Graphics/SVG/1.1/DTD/svg11.dtd">
<svg version="1.1" xmlns="http://www.w3.org/2000/svg" xmlns:xlink="http://www.w3.org/1999/xlink" x="0px" y="0px" width="40px"
	 height="120px" viewBox="0 0 40 120" enable-background="new 0 0 40 120" xml:space="preserve">
<g id="Layer_1">
	<g>
		<g>
			<path fill="#B3B3B3" d="M25,20c0,0.55-0.45,1-1,1h-8c-0.55,0-1-0.45-1-1l0,0c0-0.55,0.45-1,1-1h8C24.55,19,25,19.45,25,20L25,20z
				"/>
		</g>
		<g>
			<path fill="#B3B3B3" d="M20,15c0.55,0,1,0.45,1,1v8c0,0.55-0.45,1-1,1l0,0c-0.55,0-1-0.45-1-1v-8C19,15.45,19.45,15,20,15L20,15z
				"/>
		</g>
	</g>
	<g>
		<path fill="#B3B3B3" d="M28,12v16H12V12H28 M28,10H12c-1.104,0-2,0.896-2,2v16c0,1.104,0.896,2,2,2h16c1.104,0,2-0.896,2-2V12
			C30,10.896,29.104,10,28,10L28,10z"/>
	</g>
	<g>
		<g>
			<g>
				<path fill="#777777" d="M25,60c0,0.55-0.45,1-1,1h-8c-0.55,0-1-0.45-1-1l0,0c0-0.55,0.45-1,1-1h8C24.55,59,25,59.45,25,60L25,60
					z"/>
			</g>
			<g>
				<path fill="#777777" d="M20,55c0.55,0,1,0.45,1,1v8c0,0.55-0.45,1-1,1l0,0c-0.55,0-1-0.45-1-1v-8C19,55.45,19.45,55,20,55L20,55
					z"/>
			</g>
		</g>
		<g>
			<path fill="#777777" d="M28,52v16H12V52H28 M28,50H12c-1.104,0-2,0.896-2,2v16c0,1.104,0.896,2,2,2h16c1.104,0,2-0.896,2-2V52
				C30,50.896,29.104,50,28,50L28,50z"/>
		</g>
	</g>
	<g>
		<g>
			<g>
				<path fill="#FE3E4D" d="M25,100c0,0.55-0.45,1-1,1h-8c-0.55,0-1-0.45-1-1l0,0c0-0.55,0.45-1,1-1h8C24.55,99,25,99.45,25,100
					L25,100z"/>
			</g>
			<g>
				<path fill="#FE3E4D" d="M20,95c0.55,0,1,0.45,1,1v8c0,0.55-0.45,1-1,1l0,0c-0.55,0-1-0.45-1-1v-8C19,95.45,19.45,95,20,95L20,95
					z"/>
			</g>
		</g>
		<g>
			<path fill="#FE3E4D" d="M28,92v16H12V92H28 M28,90H12c-1.104,0-2,0.896-2,2v16c0,1.104,0.896,2,2,2h16c1.104,0,2-0.896,2-2V92
				C30,90.896,29.104,90,28,90L28,90z"/>
		</g>
	</g>
</g>
<g id="Layer_2" display="none">
</g>
</svg>
