<?xml version="1.0" encoding="utf-8"?>
<!-- Generator: Adobe Illustrator 16.0.4, SVG Export Plug-In . SVG Version: 6.00 Build 0)  -->
<!DOCTYPE svg PUBLIC "-//W3C//DTD SVG 1.1//EN" "http://www.w3.org/Graphics/SVG/1.1/DTD/svg11.dtd">
<svg version="1.1" id="Layer_1" xmlns="http://www.w3.org/2000/svg" xmlns:xlink="http://www.w3.org/1999/xlink" x="0px" y="0px"
	 width="32px" height="64px" viewBox="0 0 32 64" enable-background="new 0 0 32 64" xml:space="preserve">
<g>
	<g>
		<circle fill="#434544" cx="16" cy="16" r="16"/>
	</g>
	<g>
		<g>
			<g>
				<path fill="#FFFFFF" d="M21.657,10.343c0.389,0.389,0.389,1.025,0,1.414l-9.9,9.899c-0.389,0.389-1.025,0.389-1.414,0
					s-0.389-1.025,0-1.414l9.9-9.899C20.632,9.955,21.269,9.955,21.657,10.343z"/>
			</g>
			<g>
				<path fill="#FFFFFF" d="M10.343,10.343c0.389-0.389,1.025-0.389,1.414,0l9.9,9.899c0.389,0.389,0.389,1.025,0,1.414
					s-1.025,0.389-1.414,0l-9.9-9.899C9.954,11.369,9.954,10.732,10.343,10.343z"/>
			</g>
		</g>
	</g>
</g>
<g>
	<g>
		<circle fill="#434544" cx="16" cy="48" r="16"/>
	</g>
	<g>
		<g>
			<g>
				<path fill="#FE3E4D" d="M21.657,42.344c0.389,0.389,0.389,1.025,0,1.414l-9.9,9.898c-0.389,0.389-1.025,0.389-1.414,0
					s-0.389-1.025,0-1.414l9.9-9.898C20.632,41.955,21.269,41.955,21.657,42.344z"/>
			</g>
			<g>
				<path fill="#FE3E4D" d="M10.343,42.344c0.389-0.389,1.025-0.389,1.414,0l9.9,9.898c0.389,0.389,0.389,1.025,0,1.414
					s-1.025,0.389-1.414,0l-9.9-9.898C9.954,43.369,9.954,42.732,10.343,42.344z"/>
			</g>
		</g>
	</g>
</g>
</svg>
