<?xml version="1.0" encoding="utf-8"?>
<!-- Generator: Adobe Illustrator 16.0.4, SVG Export Plug-In . SVG Version: 6.00 Build 0)  -->
<!DOCTYPE svg PUBLIC "-//W3C//DTD SVG 1.1//EN" "http://www.w3.org/Graphics/SVG/1.1/DTD/svg11.dtd">
<svg version="1.1" id="Layer_1" xmlns="http://www.w3.org/2000/svg" xmlns:xlink="http://www.w3.org/1999/xlink" x="0px" y="0px"
	 width="104px" height="134px" viewBox="0 0 104 134" enable-background="new 0 0 104 134" xml:space="preserve">
<g>
	<path fill="#FE3E4D" d="M47.846,23.779c-0.229-7.311-3.324-10.343-7.277-12.781C35.654,7.96,21.141,2.156,16.497,1.576
		c-4.808-0.601-9.54,1.541-9.432,8.566c0.132,8.584,0.833,18.516,2.15,25.562c0.632,3.388,2.681,8.416,7.651,10.328
		c5.922,2.279,15.322,3.231,15.322,3.231s-1.361,0.596-4.025,1.995c-2.663,1.4-4.606,3.102-5.463,6.042
		c-0.874,3.015-1.28,10.646-1.023,14.884c0.254,4.158,2.751,5.77,5.939,5.258c3.182-0.512,10.527-3.033,13.62-5.102
		c2.878-1.93,4.593-4.701,5.026-8.465C47.756,50.824,48.031,29.516,47.846,23.779z"/>
	<path fill="#FE3E4D" d="M56.152,23.779c0.231-7.311,3.325-10.343,7.277-12.781c4.917-3.038,19.429-8.842,24.072-9.422
		c4.811-0.601,9.54,1.541,9.434,8.566c-0.134,8.584-0.834,18.516-2.149,25.562c-0.635,3.388-2.683,8.416-7.649,10.328
		c-5.925,2.279-15.322,3.231-15.322,3.231s1.362,0.596,4.026,1.995c2.658,1.4,4.605,3.102,5.461,6.042
		c0.873,3.015,1.281,10.646,1.024,14.884c-0.255,4.158-2.752,5.77-5.941,5.258c-3.181-0.512-10.525-3.033-13.619-5.102
		c-2.877-1.93-4.595-4.701-5.027-8.465C56.246,50.824,55.969,29.516,56.152,23.779z"/>
</g>
<g>
	<path fill="#595959" d="M10.007,120.606l9.646-9.851h3.686l-8.601,8.564l5.409,11.536H16.72l-4.31-9.612l-2.79,2.256l-1.504,7.356
		H5l6.053-28.537h3.117c-0.879,4.109-1.668,7.787-2.366,11.041c-0.696,3.252-1.32,5.666-1.871,7.242h0.074V120.606z"/>
	<path fill="#595959" d="M34.745,110.394c1.124,0,2.127,0.303,3.006,0.905c0.881,0.605,1.565,1.477,2.054,2.614h0.202l1.228-3.154
		h2.332l-4.274,20.098h-2.438l0.476-3.83h-0.147c-2.186,2.798-4.489,4.199-6.912,4.199c-1.7,0-3.032-0.603-4-1.816
		c-0.962-1.21-1.446-2.866-1.446-4.969c0-2.54,0.435-4.9,1.303-7.08c0.869-2.175,2.066-3.882,3.595-5.117
		C31.248,111.009,32.925,110.394,34.745,110.394z M31.26,128.676c1.185,0,2.367-0.565,3.54-1.697
		c1.174-1.129,2.129-2.604,2.86-4.421c0.734-1.817,1.102-3.632,1.102-5.454c0-1.261-0.341-2.261-1.027-3.008
		c-0.686-0.746-1.583-1.119-2.696-1.119c-1.268,0-2.453,0.525-3.548,1.577c-1.096,1.052-1.952,2.477-2.577,4.273
		c-0.623,1.799-0.937,3.693-0.937,5.686c0,1.394,0.288,2.438,0.863,3.127C29.416,128.331,30.221,128.676,31.26,128.676z"/>
	<path fill="#595959" d="M57.761,130.856l2.712-12.688c0.222-1.149,0.332-1.976,0.332-2.476c0-0.856-0.187-1.522-0.567-2.001
		c-0.382-0.477-1.029-0.715-1.946-0.715c-1.026,0-2.026,0.366-2.998,1.101c-0.973,0.733-1.826,1.782-2.567,3.145
		c-0.741,1.364-1.311,3.004-1.715,4.924l-1.854,8.711h-3.079l4.288-20.099h2.548l-0.404,3.723h0.179
		c1.066-1.454,2.13-2.501,3.183-3.135c1.057-0.638,2.15-0.954,3.275-0.954c1.381,0,2.443,0.398,3.189,1.192
		c0.747,0.794,1.188,1.9,1.32,3.318h0.146c1.052-1.528,2.172-2.662,3.357-3.402c1.184-0.741,2.387-1.108,3.593-1.108
		c1.557,0,2.755,0.415,3.606,1.247c0.849,0.832,1.276,2.041,1.276,3.631c0,0.832-0.135,1.92-0.404,3.264l-2.643,12.323h-3.119
		l2.715-12.69c0.244-1.271,0.368-2.163,0.368-2.677c0-0.758-0.212-1.367-0.636-1.824c-0.421-0.459-1.084-0.688-1.988-0.688
		c-0.99,0-1.971,0.355-2.935,1.063c-0.967,0.709-1.813,1.716-2.538,3.017c-0.729,1.303-1.28,2.846-1.661,4.63l-1.964,9.169h-3.079
		v0.001H57.761L57.761,130.856z"/>
	<path fill="#595959" d="M86.771,110.759l-2.75,12.745c-0.221,1.088-0.331,1.938-0.331,2.548c0,1.75,0.896,2.624,2.693,2.624
		c1.076,0,2.133-0.367,3.174-1.102c1.04-0.737,1.956-1.784,2.747-3.155c0.795-1.37,1.402-3.019,1.818-4.952l1.835-8.711H99
		l-4.236,20.1h-2.545l0.403-3.72H92.4c-1.2,1.523-2.338,2.591-3.429,3.189s-2.213,0.898-3.374,0.898
		c-1.564,0-2.796-0.427-3.686-1.274c-0.896-0.848-1.339-2.062-1.339-3.639c0-0.757,0.134-1.81,0.402-3.155l2.679-12.397
		L86.771,110.759L86.771,110.759z"/>
</g>
</svg>
