<?xml version="1.0" encoding="utf-8"?>
<!-- Generator: Adobe Illustrator 16.0.4, SVG Export Plug-In . SVG Version: 6.00 Build 0)  -->
<!DOCTYPE svg PUBLIC "-//W3C//DTD SVG 1.1//EN" "http://www.w3.org/Graphics/SVG/1.1/DTD/svg11.dtd">
<svg version="1.1" xmlns="http://www.w3.org/2000/svg" xmlns:xlink="http://www.w3.org/1999/xlink" x="0px" y="0px" width="50px"
	 height="100px" viewBox="0 0 50 100" enable-background="new 0 0 50 100" xml:space="preserve">
<g id="Layer_1">
	<g>
		<g>
			<path fill="#999999" d="M36,18c0,0.55-0.45,1-1,1H15c-0.55,0-1-0.45-1-1l0,0c0-0.55,0.45-1,1-1h20C35.55,17,36,17.45,36,18L36,18
				z"/>
		</g>
		<g>
			<path fill="#999999" d="M36,25c0,0.55-0.45,1-1,1H15c-0.55,0-1-0.45-1-1l0,0c0-0.55,0.45-1,1-1h20C35.55,24,36,24.45,36,25L36,25
				z"/>
		</g>
		<g>
			<path fill="#999999" d="M36,32c0,0.55-0.45,1-1,1H15c-0.55,0-1-0.45-1-1l0,0c0-0.55,0.45-1,1-1h20C35.55,31,36,31.45,36,32L36,32
				z"/>
		</g>
	</g>
	<g>
		<g>
			<path fill="#FE3E4D" d="M36,68c0,0.55-0.45,1-1,1H15c-0.55,0-1-0.45-1-1l0,0c0-0.55,0.45-1,1-1h20C35.55,67,36,67.45,36,68L36,68
				z"/>
		</g>
		<g>
			<path fill="#FE3E4D" d="M36,75c0,0.55-0.45,1-1,1H15c-0.55,0-1-0.45-1-1l0,0c0-0.55,0.45-1,1-1h20C35.55,74,36,74.45,36,75L36,75
				z"/>
		</g>
		<g>
			<path fill="#FE3E4D" d="M36,82c0,0.55-0.45,1-1,1H15c-0.55,0-1-0.45-1-1l0,0c0-0.55,0.45-1,1-1h20C35.55,81,36,81.45,36,82L36,82
				z"/>
		</g>
	</g>
</g>
<g id="Layer_2">
</g>
</svg>
