<?xml version="1.0" encoding="utf-8"?>
<!-- Generator: Adobe Illustrator 16.0.4, SVG Export Plug-In . SVG Version: 6.00 Build 0)  -->
<!DOCTYPE svg PUBLIC "-//W3C//DTD SVG 1.1//EN" "http://www.w3.org/Graphics/SVG/1.1/DTD/svg11.dtd">
<svg version="1.1" id="Layer_1" xmlns="http://www.w3.org/2000/svg" xmlns:xlink="http://www.w3.org/1999/xlink" x="0px" y="0px"
	 width="32px" height="64px" viewBox="0 0 32 64" enable-background="new 0 0 32 64" xml:space="preserve">
<g id="Layer_1_1_">
	<g>
		<g>
			<path fill="#999999" d="M17.721,9.618L17.721,9.618c1.368,0,2.656,0.533,3.625,1.501s1.501,2.256,1.501,3.625
				c0,1.369-0.533,2.656-1.502,3.625s-2.257,1.501-3.626,1.501c-1.368,0-2.656-0.534-3.624-1.502
				c-0.969-0.969-1.503-2.255-1.503-3.625c0-1.37,0.534-2.657,1.503-3.625C15.063,10.151,16.351,9.618,17.721,9.618 M17.72,7.501
				c-1.854,0-3.708,0.707-5.122,2.121c-2.831,2.83-2.831,7.416,0,10.245c1.414,1.415,3.267,2.122,5.121,2.122
				c1.854,0,3.708-0.707,5.123-2.122c2.829-2.829,2.83-7.416,0.001-10.245C21.428,8.208,19.574,7.501,17.72,7.501L17.72,7.501z"/>
		</g>
		<g>
			<path fill="#999999" d="M8.023,25.499c-0.271,0-0.542-0.103-0.749-0.31c-0.414-0.414-0.414-1.083,0-1.497l4.61-4.61
				c0.414-0.414,1.083-0.414,1.497,0s0.414,1.083,0,1.497l-4.61,4.61C8.565,25.396,8.294,25.499,8.023,25.499z"/>
		</g>
	</g>
	<g>
		<g>
			<path fill="#FE3E4E" d="M17.72,41.618c1.368,0,2.656,0.533,3.625,1.501c0.969,0.969,1.502,2.256,1.502,3.626
				c0,1.369-0.533,2.656-1.503,3.626c-0.969,0.968-2.257,1.502-3.625,1.502c-1.369,0-2.656-0.534-3.624-1.504
				c-0.969-0.968-1.503-2.255-1.503-3.624c0-1.368,0.534-2.657,1.503-3.626C15.063,42.151,16.351,41.618,17.72,41.618 M17.72,39.501
				c-1.854,0-3.708,0.707-5.123,2.121c-2.83,2.83-2.83,7.417,0,10.246c1.415,1.415,3.268,2.122,5.122,2.122
				c1.854,0,3.707-0.707,5.122-2.122c2.83-2.829,2.832-7.416,0.001-10.246C21.427,40.208,19.573,39.501,17.72,39.501L17.72,39.501z"
				/>
		</g>
		<g>
			<path fill="#FE3E4D" d="M8.023,57.499c-0.271,0-0.542-0.104-0.749-0.31c-0.414-0.414-0.414-1.084,0-1.497l4.611-4.611
				c0.414-0.414,1.083-0.414,1.497,0c0.414,0.413,0.414,1.083,0,1.497l-4.611,4.611C8.565,57.396,8.294,57.499,8.023,57.499z"/>
		</g>
	</g>
</g>
<g id="Layer_2">
</g>
</svg>
