<?xml version="1.0" encoding="utf-8"?>
<!-- Generator: Adobe Illustrator 16.0.4, SVG Export Plug-In . SVG Version: 6.00 Build 0)  -->
<!DOCTYPE svg PUBLIC "-//W3C//DTD SVG 1.1//EN" "http://www.w3.org/Graphics/SVG/1.1/DTD/svg11.dtd">
<svg version="1.1" id="Layer_1" xmlns="http://www.w3.org/2000/svg" xmlns:xlink="http://www.w3.org/1999/xlink" x="0px" y="0px"
	 width="40px" height="120px" viewBox="0 0 40 120" enable-background="new 0 0 40 120" xml:space="preserve">
<g id="Layer_1_1_">
	<g>
		<g>
			<path fill="#B3B3B3" d="M30,13c0,0.55-0.45,1-1,1H11c-0.55,0-1-0.45-1-1l0,0c0-0.55,0.45-1,1-1h18C29.55,12,30,12.45,30,13L30,13
				z"/>
		</g>
		<g>
			<path fill="#B3B3B3" d="M30,20c0,0.55-0.45,1-1,1H11c-0.55,0-1-0.45-1-1l0,0c0-0.55,0.45-1,1-1h18C29.55,19,30,19.45,30,20L30,20
				z"/>
		</g>
		<g>
			<path fill="#B3B3B3" d="M30,27c0,0.55-0.45,1-1,1H11c-0.55,0-1-0.45-1-1l0,0c0-0.55,0.45-1,1-1h18C29.55,26,30,26.45,30,27L30,27
				z"/>
		</g>
		<circle fill="#B3B3B3" cx="25" cy="13" r="3"/>
		<circle fill="#B3B3B3" cx="16" cy="20" r="3"/>
		<circle fill="#B3B3B3" cx="25" cy="27" r="3"/>
	</g>
	<g>
		<g>
			<path fill="#777777" d="M30,53c0,0.55-0.45,1-1,1H11c-0.55,0-1-0.45-1-1l0,0c0-0.55,0.45-1,1-1h18C29.55,52,30,52.45,30,53L30,53
				z"/>
		</g>
		<g>
			<path fill="#777777" d="M30,60c0,0.55-0.45,1-1,1H11c-0.55,0-1-0.45-1-1l0,0c0-0.55,0.45-1,1-1h18C29.55,59,30,59.45,30,60L30,60
				z"/>
		</g>
		<g>
			<path fill="#777777" d="M30,67c0,0.55-0.45,1-1,1H11c-0.55,0-1-0.45-1-1l0,0c0-0.55,0.45-1,1-1h18C29.55,66,30,66.45,30,67L30,67
				z"/>
		</g>
		<circle fill="#777777" cx="25" cy="53" r="3"/>
		<circle fill="#777777" cx="16" cy="60" r="3"/>
		<circle fill="#777777" cx="25" cy="67" r="3"/>
	</g>
	<g>
		<g>
			<path fill="#FE3E4D" d="M30,93c0,0.55-0.45,1-1,1H11c-0.55,0-1-0.45-1-1l0,0c0-0.55,0.45-1,1-1h18C29.55,92,30,92.45,30,93L30,93
				z"/>
		</g>
		<g>
			<path fill="#FE3E4D" d="M30,100c0,0.55-0.45,1-1,1H11c-0.55,0-1-0.45-1-1l0,0c0-0.55,0.45-1,1-1h18C29.55,99,30,99.45,30,100
				L30,100z"/>
		</g>
		<g>
			<path fill="#FE3E4D" d="M30,107c0,0.55-0.45,1-1,1H11c-0.55,0-1-0.45-1-1l0,0c0-0.55,0.45-1,1-1h18C29.55,106,30,106.45,30,107
				L30,107z"/>
		</g>
		<circle fill="#FE3E4D" cx="25" cy="93" r="3"/>
		<circle fill="#FE3E4D" cx="16" cy="100" r="3"/>
		<circle fill="#FE3E4D" cx="25" cy="107" r="3"/>
	</g>
</g>
<g id="Layer_2">
</g>
</svg>
